<svg id="visual" viewBox="0 0 900 600" width="900" height="600" xmlns="http://www.w3.org/2000/svg" xmlns:xlink="http://www.w3.org/1999/xlink" version="1.1"><rect x="0" y="0" width="900" height="600" fill="#f6f6f6"></rect><path d="M0 281L37.5 294.7C75 308.3 150 335.7 225 359.8C300 384 375 405 450 396.3C525 387.7 600 349.3 675 333.7C750 318 825 325 862.5 328.5L900 332L900 0L862.5 0C825 0 750 0 675 0C600 0 525 0 450 0C375 0 300 0 225 0C150 0 75 0 37.5 0L0 0Z" fill="#bcbcbc"></path><path d="M0 226L37.5 223.3C75 220.7 150 215.3 225 234.5C300 253.7 375 297.3 450 308.5C525 319.7 600 298.3 675 294.7C750 291 825 305 862.5 312L900 319L900 0L862.5 0C825 0 750 0 675 0C600 0 525 0 450 0C375 0 300 0 225 0C150 0 75 0 37.5 0L0 0Z" fill="#808182"></path><path d="M0 230L37.5 213.2C75 196.3 150 162.7 225 161C300 159.3 375 189.7 450 201.8C525 214 600 208 675 201.8C750 195.7 825 189.3 862.5 186.2L900 183L900 0L862.5 0C825 0 750 0 675 0C600 0 525 0 450 0C375 0 300 0 225 0C150 0 75 0 37.5 0L0 0Z" fill="#494a4c"></path><path d="M0 135L37.5 123.3C75 111.7 150 88.3 225 82.7C300 77 375 89 450 103.8C525 118.7 600 136.3 675 145C750 153.7 825 153.3 862.5 153.2L900 153L900 0L862.5 0C825 0 750 0 675 0C600 0 525 0 450 0C375 0 300 0 225 0C150 0 75 0 37.5 0L0 0Z" fill="#191a1c"></path></svg>