<svg id="visual" viewBox="0 0 900 600" width="900" height="600" xmlns="http://www.w3.org/2000/svg" xmlns:xlink="http://www.w3.org/1999/xlink" version="1.1"><g stroke-width="1" stroke-linejoin="bevel"><path d="M400.7 224L474.3 92L383.7 156Z" fill="#2a2a32" stroke="#2a2a32"></path><path d="M400.7 224L525.3 235L474.3 92Z" fill="#2a2a32" stroke="#2a2a32"></path><path d="M524.3 354L611.9 262L525.3 235Z" fill="#2b2b33" stroke="#2b2b33"></path><path d="M525.3 235L634.9 89L474.3 92Z" fill="#2b2b33" stroke="#2b2b33"></path><path d="M634.9 89L486.3 0L474.3 92Z" fill="#2b2b33" stroke="#2b2b33"></path><path d="M474.3 92L391.7 0L383.7 156Z" fill="#2b2b33" stroke="#2b2b33"></path><path d="M486.3 0L391.7 0L474.3 92Z" fill="#2a2a32" stroke="#2a2a32"></path><path d="M611.9 262L634.9 89L525.3 235Z" fill="#2a2a32" stroke="#2a2a32"></path><path d="M400.7 224L524.3 354L525.3 235Z" fill="#2c2c34" stroke="#2c2c34"></path><path d="M279.1 0L256.1 150L383.7 156Z" fill="#2c2c34" stroke="#2c2c34"></path><path d="M383.7 156L278.1 278L400.7 224Z" fill="#2a2a32" stroke="#2a2a32"></path><path d="M400.7 224L374.7 395L524.3 354Z" fill="#2b2b33" stroke="#2b2b33"></path><path d="M256.1 150L278.1 278L383.7 156Z" fill="#2a2a32" stroke="#2a2a32"></path><path d="M634.9 89L622.9 0L486.3 0Z" fill="#2b2b33" stroke="#2b2b33"></path><path d="M278.1 278L374.7 395L400.7 224Z" fill="#2a2a32" stroke="#2a2a32"></path><path d="M391.7 0L279.1 0L383.7 156Z" fill="#2a2a32" stroke="#2a2a32"></path><path d="M642.9 450L664.9 374L524.3 354Z" fill="#2a2a32" stroke="#2a2a32"></path><path d="M524.3 354L664.9 374L611.9 262Z" fill="#2a2a32" stroke="#2a2a32"></path><path d="M611.9 262L797.4 145L634.9 89Z" fill="#2b2b33" stroke="#2b2b33"></path><path d="M279.1 0L167.6 146L256.1 150Z" fill="#2b2b33" stroke="#2b2b33"></path><path d="M256.1 150L152.6 216L278.1 278Z" fill="#2b2b33" stroke="#2b2b33"></path><path d="M278.1 278L242.1 374L374.7 395Z" fill="#2c2c34" stroke="#2c2c34"></path><path d="M152.6 216L242.1 374L278.1 278Z" fill="#2b2b33" stroke="#2b2b33"></path><path d="M256.1 492L408.7 477L374.7 395Z" fill="#2c2c34" stroke="#2c2c34"></path><path d="M374.7 395L408.7 477L524.3 354Z" fill="#2b2b33" stroke="#2b2b33"></path><path d="M167.6 146L152.6 216L256.1 150Z" fill="#2c2c34" stroke="#2c2c34"></path><path d="M408.7 477L533.3 485L524.3 354Z" fill="#2a2a32" stroke="#2a2a32"></path><path d="M664.9 374L784.4 249L611.9 262Z" fill="#2b2b33" stroke="#2b2b33"></path><path d="M634.9 89L747.4 0L622.9 0Z" fill="#2c2c34" stroke="#2c2c34"></path><path d="M533.3 485L642.9 450L524.3 354Z" fill="#2b2b33" stroke="#2b2b33"></path><path d="M664.9 374L778.4 367L784.4 249Z" fill="#2b2b33" stroke="#2b2b33"></path><path d="M797.4 145L747.4 0L634.9 89Z" fill="#2c2c34" stroke="#2c2c34"></path><path d="M784.4 249L797.4 145L611.9 262Z" fill="#2c2c34" stroke="#2c2c34"></path><path d="M756.4 453L778.4 367L664.9 374Z" fill="#2b2b33" stroke="#2b2b33"></path><path d="M784.4 249L900 208L797.4 145Z" fill="#2a2a32" stroke="#2a2a32"></path><path d="M279.1 0L133.6 0L167.6 146Z" fill="#2b2b33" stroke="#2b2b33"></path><path d="M167.6 146L0 144L152.6 216Z" fill="#2b2b33" stroke="#2b2b33"></path><path d="M242.1 374L256.1 492L374.7 395Z" fill="#2b2b33" stroke="#2b2b33"></path><path d="M408.7 477L507.3 600L533.3 485Z" fill="#2a2a32" stroke="#2a2a32"></path><path d="M143.6 452L256.1 492L242.1 374Z" fill="#2b2b33" stroke="#2b2b33"></path><path d="M0 256L140.6 394L152.6 216Z" fill="#2b2b33" stroke="#2b2b33"></path><path d="M152.6 216L140.6 394L242.1 374Z" fill="#2c2c34" stroke="#2c2c34"></path><path d="M616.9 600L756.4 453L642.9 450Z" fill="#2b2b33" stroke="#2b2b33"></path><path d="M642.9 450L756.4 453L664.9 374Z" fill="#2b2b33" stroke="#2b2b33"></path><path d="M140.6 394L143.6 452L242.1 374Z" fill="#2b2b33" stroke="#2b2b33"></path><path d="M362.7 600L408.7 477L256.1 492Z" fill="#2c2c34" stroke="#2c2c34"></path><path d="M362.7 600L507.3 600L408.7 477Z" fill="#2a2a32" stroke="#2a2a32"></path><path d="M533.3 485L616.9 600L642.9 450Z" fill="#2c2c34" stroke="#2c2c34"></path><path d="M900 388L784.4 249L778.4 367Z" fill="#2a2a32" stroke="#2a2a32"></path><path d="M900 388L900 208L784.4 249Z" fill="#2b2b33" stroke="#2b2b33"></path><path d="M797.4 145L900 100L747.4 0Z" fill="#2b2b33" stroke="#2b2b33"></path><path d="M223.1 600L362.7 600L256.1 492Z" fill="#2a2a32" stroke="#2a2a32"></path><path d="M900 208L900 100L797.4 145Z" fill="#2b2b33" stroke="#2b2b33"></path><path d="M507.3 600L616.9 600L533.3 485Z" fill="#2a2a32" stroke="#2a2a32"></path><path d="M133.6 0L0 144L167.6 146Z" fill="#2a2a32" stroke="#2a2a32"></path><path d="M140.6 394L0 471L143.6 452Z" fill="#2b2b33" stroke="#2b2b33"></path><path d="M900 100L900 0L747.4 0Z" fill="#2b2b33" stroke="#2b2b33"></path><path d="M0 144L0 256L152.6 216Z" fill="#2b2b33" stroke="#2b2b33"></path><path d="M900 479L900 388L756.4 453Z" fill="#2b2b33" stroke="#2b2b33"></path><path d="M756.4 453L900 388L778.4 367Z" fill="#2b2b33" stroke="#2b2b33"></path><path d="M96.6 600L223.1 600L143.6 452Z" fill="#2c2c34" stroke="#2c2c34"></path><path d="M143.6 452L223.1 600L256.1 492Z" fill="#2b2b33" stroke="#2b2b33"></path><path d="M133.6 0L0 0L0 144Z" fill="#2c2c34" stroke="#2c2c34"></path><path d="M0 256L0 380L140.6 394Z" fill="#2b2b33" stroke="#2b2b33"></path><path d="M791.4 600L900 479L756.4 453Z" fill="#2c2c34" stroke="#2c2c34"></path><path d="M616.9 600L791.4 600L756.4 453Z" fill="#2a2a32" stroke="#2a2a32"></path><path d="M0 380L0 471L140.6 394Z" fill="#2b2b33" stroke="#2b2b33"></path><path d="M0 471L96.6 600L143.6 452Z" fill="#2a2a32" stroke="#2a2a32"></path><path d="M791.4 600L900 600L900 479Z" fill="#2c2c34" stroke="#2c2c34"></path><path d="M0 471L0 600L96.6 600Z" fill="#2c2c34" stroke="#2c2c34"></path></g></svg>